<svg width="400" height="400" viewBox="0 0 400 400" fill="none" xmlns="http://www.w3.org/2000/svg">
  <rect width="400" height="400" rx="8" fill="#1A1A1A"/>
  <path d="M200 120C155.82 120 120 155.82 120 200C120 244.18 155.82 280 200 280C244.18 280 280 244.18 280 200C280 155.82 244.18 120 200 120ZM240 210H200C194.48 210 190 205.52 190 200V160C190 154.48 194.48 150 200 150C205.52 150 210 154.48 210 160V190H240C245.52 190 250 194.48 250 200C250 205.52 245.52 210 240 210Z" fill="#F5F5F0" fill-opacity="0.3"/>
</svg>

